<?xml version="1.0" standalone="no"?>
<!DOCTYPE svg PUBLIC "-//W3C//DTD SVG 20010904//EN"
 "http://www.w3.org/TR/2001/REC-SVG-20010904/DTD/svg10.dtd">
<svg version="1.0" xmlns="http://www.w3.org/2000/svg"
 width="700.000000pt" height="700.000000pt" viewBox="0 0 700.000000 700.000000"
 preserveAspectRatio="xMidYMid meet">
<metadata>
Created by potrace 1.11, written by Peter Selinger 2001-2013
</metadata>
<g transform="translate(0.000000,700.000000) scale(0.100000,-0.100000)"
fill="#000000" stroke="none">
<path d="M3275 6994 c-753 -61 -1398 -313 -1975 -773 -117 -94 -346 -315 -450
-436 -459 -535 -734 -1160 -826 -1880 -25 -195 -25 -615 0 -810 65 -510 225
-982 469 -1385 22 -36 40 -66 41 -67 1 -1 49 17 107 41 134 55 260 91 376 106
118 16 401 8 503 -15 98 -21 267 -79 356 -121 144 -68 345 -214 453 -329 l55
-58 -77 -37 c-93 -46 -155 -91 -228 -167 -61 -63 -122 -143 -114 -151 2 -3 19
6 37 20 46 35 150 87 233 115 260 89 540 64 817 -72 338 -167 591 -510 649
-883 l13 -82 40 0 c71 0 297 31 447 61 534 107 1047 347 1484 695 135 108 435
406 536 534 349 439 578 915 697 1445 58 256 77 447 77 755 -1 361 -39 645
-130 958 -31 110 -99 310 -108 318 -2 2 -38 -12 -80 -31 -360 -166 -792 -190
-1161 -63 -461 159 -822 511 -984 958 -66 183 -93 338 -93 542 0 206 33 386
103 561 18 45 27 82 22 87 -28 27 -396 111 -624 141 -140 19 -543 33 -665 23z
m-1560 -2308 c197 -52 315 -199 315 -393 0 -166 -80 -305 -348 -605 l-131
-146 217 -4 c228 -3 248 -7 284 -52 22 -26 23 -97 3 -135 -30 -59 -44 -61
-475 -61 -424 0 -425 0 -469 56 -26 33 -27 89 -3 129 11 17 75 91 143 165 275
300 407 461 442 540 58 129 -4 250 -128 250 -90 0 -132 -42 -175 -175 -32 -96
-71 -135 -137 -135 -94 0 -145 53 -144 150 1 184 140 355 335 411 74 21 202
24 271 5z m1167 -6 c129 -40 226 -125 264 -232 8 -24 15 -75 16 -115 0 -92
-35 -175 -99 -234 -25 -22 -43 -42 -41 -43 2 -2 25 -17 51 -35 178 -121 204
-386 57 -570 -179 -222 -599 -222 -785 0 -126 151 -136 335 -28 492 20 28 92
91 130 112 2 1 -20 25 -48 54 -71 74 -93 127 -92 221 1 176 106 303 293 356
72 20 208 17 282 -6z m952 -1 c77 -28 146 -94 181 -170 96 -215 -61 -459 -295
-459 -124 0 -241 75 -297 189 -23 47 -28 69 -28 136 0 67 5 89 27 135 76 156
254 229 412 169z"/>
<path d="M2691 4440 c-70 -17 -111 -96 -92 -181 11 -48 34 -77 78 -95 45 -19
80 -17 129 6 48 24 74 67 74 127 0 99 -89 167 -189 143z"/>
<path d="M2652 3914 c-47 -24 -79 -67 -90 -121 -20 -95 15 -184 88 -220 79
-41 159 -26 217 40 37 42 47 85 41 163 -5 58 -24 93 -71 128 -37 27 -139 33
-185 10z"/>
<path d="M3648 4451 c-28 -25 -33 -36 -33 -76 0 -40 5 -51 33 -76 58 -52 138
-34 169 38 43 104 -85 189 -169 114z"/>
<path d="M5855 6080 c10 -11 20 -20 23 -20 3 0 -3 9 -13 20 -10 11 -20 20 -23
20 -3 0 3 -9 13 -20z"/>
<path d="M6070 5865 c13 -14 26 -25 28 -25 3 0 -5 11 -18 25 -13 14 -26 25
-28 25 -3 0 5 -11 18 -25z"/>
<path d="M6140 5786 c0 -2 8 -10 18 -17 15 -13 16 -12 3 4 -13 16 -21 21 -21
13z"/>
<path d="M6190 5726 c0 -2 8 -10 18 -17 15 -13 16 -12 3 4 -13 16 -21 21 -21
13z"/>
<path d="M6230 5676 c0 -2 8 -10 18 -17 15 -13 16 -12 3 4 -13 16 -21 21 -21
13z"/>
</g>
</svg>
