<?xml version="1.0" encoding="iso-8859-1"?>
<!-- Generator: Adobe Illustrator 19.0.0, SVG Export Plug-In . SVG Version: 6.00 Build 0)  -->
<svg version="1.1" id="Capa_1" xmlns="http://www.w3.org/2000/svg" xmlns:xlink="http://www.w3.org/1999/xlink" x="0px" y="0px"
	 viewBox="0 0 504.123 504.123" style="enable-background:new 0 0 504.123 504.123;" xml:space="preserve">
<circle style="fill:#E1E6E8;" cx="252.062" cy="252.062" r="252.062"/>
<g>
	<rect x="425.354" y="359.975" style="fill:#183651;" width="15.754" height="15.754"/>
	<rect x="425.354" y="320.591" style="fill:#183651;" width="15.754" height="15.754"/>
	<rect x="425.354" y="281.206" style="fill:#183651;" width="15.754" height="15.754"/>
	<rect x="425.354" y="241.822" style="fill:#183651;" width="15.754" height="15.754"/>
	<rect x="425.354" y="202.437" style="fill:#183651;" width="15.754" height="15.754"/>
	<rect x="63.015" y="359.975" style="fill:#183651;" width="15.754" height="15.754"/>
	<rect x="63.015" y="320.591" style="fill:#183651;" width="15.754" height="15.754"/>
	<rect x="63.015" y="281.206" style="fill:#183651;" width="15.754" height="15.754"/>
	<rect x="63.015" y="241.822" style="fill:#183651;" width="15.754" height="15.754"/>
	<rect x="63.015" y="202.437" style="fill:#183651;" width="15.754" height="15.754"/>
</g>
<polygon style="fill:#FCBD5E;" points="344.222,179.594 436.382,153.6 344.222,127.606 382.818,65.378 290.658,91.372 
	252.062,29.145 213.465,91.372 121.305,65.378 159.902,127.606 67.742,153.6 159.902,179.594 121.305,241.822 213.465,216.615 
	252.062,278.843 290.658,216.615 382.818,241.822 "/>
<path style="fill:#183651;" d="M252.062,286.72c-2.363,0-5.514-1.575-7.089-3.938l-35.446-57.502l-86.646,24.418
	c-3.151,0.788-6.302,0-8.665-3.151c-1.575-2.363-2.363-6.302-0.788-8.665l32.295-53.563l-80.345-22.843
	c-3.151-0.788-5.514-3.938-5.514-7.877c0-3.151,2.363-6.302,5.514-7.877l81.92-22.843l-32.295-53.563
	c-1.575-3.151-1.575-6.302,0.788-8.665c1.575-2.363,5.514-3.938,8.665-3.151l86.646,24.418l35.446-57.502
	c3.151-4.726,10.24-4.726,13.391,0l35.446,57.502l86.646-24.418c3.151-0.788,6.302,0,8.665,3.151
	c1.575,2.363,2.363,6.302,0.788,8.665l-32.295,53.563l81.92,22.843c3.151,0.788,5.514,3.938,5.514,7.877
	c0,3.151-2.363,6.302-5.514,7.877l-81.92,22.843l32.295,53.563c1.575,3.151,1.575,6.302-0.788,8.665
	c-1.575,2.363-5.514,3.938-8.665,3.151l-86.646-24.418l-35.446,57.502C257.575,285.145,254.425,286.72,252.062,286.72z
	 M213.465,208.738c2.363,0,5.514,1.575,7.089,3.938l31.508,51.2l31.508-51.2c1.575-3.151,5.514-4.726,8.665-3.151l73.255,20.48
	l-27.569-44.898c-1.575-2.363-1.575-4.726-0.788-7.089s3.151-3.938,5.514-4.726l65.378-18.117l-65.378-19.692
	c-2.363-0.788-3.938-2.363-5.514-4.726c-0.788-2.363-0.788-4.726,0.788-7.089l27.569-44.898l-73.255,20.48
	c-3.151,0.788-7.089-0.788-8.665-3.151l-31.508-51.2l-31.508,51.2c-1.575,3.151-5.514,4.726-8.665,3.151l-73.255-20.48
	l27.569,44.898c1.575,2.363,1.575,4.726,0.788,7.089c-0.788,2.363-3.151,3.938-5.514,4.726L96.886,153.6l65.378,18.117
	c2.363,0.788,3.938,2.363,5.514,4.726c0.788,2.363,0.788,4.726-0.788,7.089l-27.569,44.898l73.255-20.48
	C212.677,208.738,213.465,208.738,213.465,208.738z"/>
<path style="fill:#FFFFFF;" d="M385.969,415.902L288.295,276.48V155.175h1.575c8.665,0,15.754-7.089,15.754-15.754
	c0-8.665-7.089-15.754-15.754-15.754h-75.618c-8.665,0-15.754,7.089-15.754,15.754c0,8.665,7.089,15.754,15.754,15.754h1.575V276.48
	l-97.674,139.422c-8.665,12.603,0,29.932,15.754,29.932h236.308C385.182,445.834,394.634,428.505,385.969,415.902z"/>
<path style="fill:#183651;" d="M370.215,453.711H133.908c-10.24,0-18.905-5.514-23.631-14.178
	c-4.726-8.665-3.938-19.692,1.575-27.569l96.098-137.058v-112.64c-10.24-3.151-17.329-11.815-17.329-22.843
	c0-13.391,10.24-23.631,23.631-23.631h75.618c13.391,0,23.631,10.24,23.631,23.631c0,11.028-7.089,19.692-17.329,22.843v111.852
	l96.098,137.058c5.514,7.877,6.302,18.905,1.575,27.569C389.12,448.197,380.455,453.711,370.215,453.711z M214.252,131.545
	c-4.726,0-7.877,3.151-7.877,7.877c0,4.726,3.151,7.877,7.877,7.877h1.575c4.726,0,7.877,3.151,7.877,7.877V276.48
	c0,1.575-0.788,3.151-1.575,4.726L125.243,419.84c-2.363,3.151-2.363,7.877-0.788,11.815c1.575,3.938,5.514,6.302,10.24,6.302
	h236.308c3.938,0,7.877-2.363,10.24-6.302c1.575-3.938,1.575-7.877-0.788-11.815l-98.462-138.634
	c-0.788-1.575-1.575-3.151-1.575-4.726V155.175c0-4.726,3.151-7.877,7.877-7.877h1.575c4.726,0,7.877-3.151,7.877-7.877
	c0-4.726-3.151-7.877-7.877-7.877H214.252z"/>
<polygon style="fill:#2AA0DA;" points="230.006,311.138 157.538,414.326 346.585,414.326 274.117,311.138 "/>
<g>
	<rect x="263.089" y="163.052" style="fill:#183651;" width="24.418" height="15.754"/>
	<rect x="263.089" y="193.772" style="fill:#183651;" width="24.418" height="15.754"/>
	<rect x="263.089" y="225.28" style="fill:#183651;" width="24.418" height="15.754"/>
	<rect x="263.089" y="256" style="fill:#183651;" width="24.418" height="15.754"/>
</g>
<g>
</g>
<g>
</g>
<g>
</g>
<g>
</g>
<g>
</g>
<g>
</g>
<g>
</g>
<g>
</g>
<g>
</g>
<g>
</g>
<g>
</g>
<g>
</g>
<g>
</g>
<g>
</g>
<g>
</g>
</svg>
