<svg height="512pt" viewBox="-7 0 512 512" width="512pt" xmlns="http://www.w3.org/2000/svg"><path d="m140.429688 394.125c-5.625 0-11.332032-1.203125-16.753907-3.746094-19.765625-9.273437-28.300781-32.898437-19.03125-52.664062 6.699219-14.28125 38.085938-37.695313 51.269531-47.101563 4.449219-3.171875 10.261719-3.703125 15.210938-1.378906 4.945312 2.320313 8.257812 7.128906 8.660156 12.578125 1.195313 16.148438 3.253906 55.253906-3.445312 69.535156-6.730469 14.34375-21.023438 22.777344-35.910156 22.777344zm0 0" fill="#b5efff"/><path d="m248.039062 394.125c-5.625 0-11.335937-1.203125-16.753906-3.746094-9.578125-4.492187-16.832031-12.445312-20.425781-22.390625-3.59375-9.949219-3.097656-20.699219 1.394531-30.273437 6.699219-14.28125 38.085938-37.695313 51.269532-47.101563 4.445312-3.171875 10.261718-3.703125 15.207031-1.382812 4.949219 2.324219 8.261719 7.132812 8.664062 12.582031 1.195313 16.148438 3.253907 55.253906-3.449219 69.535156-6.726562 14.34375-21.019531 22.777344-35.90625 22.777344zm0 0" fill="#b5efff"/><path d="m355.644531 394.125c-5.625 0-11.332031-1.203125-16.753906-3.746094-19.765625-9.273437-28.304687-32.898437-19.03125-52.664062 6.699219-14.28125 38.085937-37.695313 51.269531-47.101563 4.449219-3.171875 10.261719-3.699219 15.210938-1.378906 4.945312 2.320313 8.257812 7.128906 8.660156 12.578125 1.195312 16.148438 3.253906 55.253906-3.445312 69.535156-6.730469 14.34375-21.019532 22.777344-35.910157 22.777344zm0 0" fill="#80dbff"/><path d="m194.269531 512c-5.734375 0-11.445312-1.261719-16.789062-3.769531-19.765625-9.273438-28.300781-32.898438-19.03125-52.664063 6.699219-14.28125 38.085937-37.695312 51.269531-47.101562 4.449219-3.171875 10.261719-3.699219 15.210938-1.378906 4.945312 2.320312 8.257812 7.128906 8.660156 12.578124 1.195312 16.152344 3.253906 55.253907-3.445313 69.535157-4.492187 9.574219-12.445312 16.828125-22.390625 20.421875-4.394531 1.589844-8.945312 2.378906-13.484375 2.378906zm0 0" fill="#b5efff"/><path d="m301.839844 511.976562c-5.621094 0-11.332032-1.203124-16.753906-3.746093-19.765626-9.273438-28.300782-32.898438-19.027344-52.664063 6.699218-14.28125 38.085937-37.695312 51.269531-47.097656 4.445313-3.175781 10.257813-3.703125 15.207031-1.382812 4.949219 2.320312 8.257813 7.128906 8.664063 12.578124 1.195312 16.152344 3.25 55.253907-3.449219 69.535157-6.730469 14.347656-21.019531 22.777343-35.910156 22.777343zm0 0" fill="#80dbff"/><path d="m479.984375 250.949219h-460.078125c-6.589844 0-12.417969-4.261719-14.414062-10.539063-3.644532-11.441406-5.492188-23.355468-5.492188-35.402344 0-64.300781 52.3125-116.617187 116.617188-116.617187.679687 0 1.363281.007813 2.050781.019531 27.21875-54.050781 82.46875-88.410156 143.632812-88.410156 36.695313 0 72.589844 12.6875 101.070313 35.726562 25.414062 20.5625 44.0625 48.578126 53.230468 79.699219 46.550782 10.960938 80.496094 52.980469 80.496094 101.699219 0 7.28125-.78125 14.632812-2.316406 21.847656-1.488281 6.984375-7.65625 11.976563-14.796875 11.976563zm0 0" fill="#ebf6fc"/><path d="m278.730469 289.234375c-4.945313-2.324219-10.761719-1.792969-15.207031 1.378906-3.816407 2.722657-9.15625 6.621094-14.976563 11.125v92.367188c14.703125-.1875 28.746094-8.574219 35.398437-22.757813 6.703126-14.28125 4.644532-53.386718 3.449219-69.535156-.402343-5.449219-3.714843-10.257812-8.664062-12.578125zm0 0" fill="#80dbff"/><path d="m416.601562 115.425781c-9.167968-31.121093-27.816406-59.136719-53.230468-79.699219-28.480469-23.039062-64.375-35.726562-101.070313-35.726562-4.625 0-9.210937.21875-13.753906.605469v250.34375h231.4375c7.140625 0 13.308594-4.992188 14.796875-11.976563 1.535156-7.214844 2.316406-14.566406 2.316406-21.851562 0-48.714844-33.945312-90.734375-80.496094-101.695313zm0 0" fill="#cdebfc"/></svg>