<svg height="511.99957pt" viewBox="1 1 511.99957 511.99957" width="511.99957pt" xmlns="http://www.w3.org/2000/svg"><path d="m448 256c0 106.039062-85.960938 192-192 192s-192-85.960938-192-192 85.960938-192 192-192 192 85.960938 192 192zm0 0" fill="#feb029"/><path d="m411.429688 256c0 85.839844-69.589844 155.429688-155.429688 155.429688s-155.429688-69.589844-155.429688-155.429688 69.589844-155.429688 155.429688-155.429688 155.429688 69.589844 155.429688 155.429688zm0 0" fill="#f3c52d"/><path d="m107.265625 307.199219c27.71875 81.113281 115.949219 124.394531 197.0625 96.671875 27.6875-9.460938 52.136719-26.558594 70.527344-49.320313l-1.195313-3.484375-119.386718-94.34375-50.46875-147.007812c-81.191407 27.871094-124.414063 116.28125-96.546876 197.472656.003907.003906.003907.007812.007813.011719zm0 0" fill="#fece2f"/><g fill="#fd9226"><path d="m457.144531 45.714844h-27.429687c-5.050782 0-9.144532 4.09375-9.144532 9.140625 0 5.050781 4.09375 9.144531 9.144532 9.144531h5.355468l-23.90625 23.910156c-3.632812 3.507813-3.734374 9.292969-.226562 12.925782 3.507812 3.632812 9.296875 3.734374 12.929688.226562.074218-.074219.152343-.148438.222656-.226562l23.910156-23.90625v5.355468c0 5.050782 4.09375 9.144532 9.144531 9.144532 5.046875 0 9.140625-4.09375 9.140625-9.144532v-27.429687c0-5.046875-4.09375-9.140625-9.140625-9.140625zm0 0"/><path d="m457.144531 420.570312c-5.050781 0-9.144531 4.09375-9.144531 9.144532v5.355468l-23.910156-23.90625c-3.628906-3.507812-9.417969-3.410156-12.925782.222657-3.421874 3.542969-3.421874 9.160156 0 12.703125l23.90625 23.910156h-5.355468c-5.050782 0-9.144532 4.09375-9.144532 9.140625 0 5.050781 4.09375 9.144531 9.144532 9.144531h27.429687c5.046875 0 9.140625-4.09375 9.140625-9.144531v-27.425781c0-5.050782-4.09375-9.144532-9.140625-9.144532zm0 0"/><path d="m76.929688 64h5.355468c5.050782 0 9.144532-4.09375 9.144532-9.144531 0-5.046875-4.09375-9.140625-9.144532-9.140625h-27.429687c-5.046875 0-9.140625 4.09375-9.140625 9.140625v27.429687c0 5.050782 4.09375 9.144532 9.140625 9.144532 5.050781 0 9.144531-4.09375 9.144531-9.144532v-5.355468l23.910156 23.90625c3.628906 3.507812 9.417969 3.40625 12.925782-.222657 3.421874-3.542969 3.421874-9.160156 0-12.703125zm0 0"/><path d="m87.910156 411.164062-23.910156 23.90625v-5.355468c0-5.050782-4.09375-9.144532-9.144531-9.144532-5.046875 0-9.140625 4.09375-9.140625 9.144532v27.429687c0 5.046875 4.09375 9.140625 9.140625 9.140625h27.429687c5.050782 0 9.144532-4.09375 9.144532-9.140625 0-5.050781-4.09375-9.144531-9.144532-9.144531h-5.355468l23.90625-23.910156c3.507812-3.628906 3.410156-9.417969-.222657-12.925782-3.542969-3.421874-9.160156-3.421874-12.703125 0zm0 0"/></g><path d="m256 0c-5.050781 0-9.144531 4.09375-9.144531 9.144531v18.285157c0 5.046874 4.09375 9.140624 9.144531 9.140624s9.140625-4.09375 9.140625-9.140624v-18.285157c.003906-5.050781-4.089844-9.144531-9.140625-9.144531zm0 0" fill="#fbb540"/><path d="m27.429688 246.855469h-18.285157c-5.050781 0-9.144531 4.09375-9.144531 9.144531s4.09375 9.140625 9.144531 9.140625h18.285157c5.046874 0 9.140624-4.089844 9.140624-9.140625s-4.09375-9.144531-9.140624-9.144531zm0 0" fill="#fbb540"/><path d="m256 475.429688c-5.050781 0-9.144531 4.09375-9.144531 9.140624v18.285157c0 5.050781 4.09375 9.144531 9.144531 9.144531s9.140625-4.09375 9.140625-9.144531v-18.285157c.003906-5.046874-4.089844-9.140624-9.140625-9.140624zm0 0" fill="#fbb540"/><path d="m502.855469 246.855469h-18.285157c-5.046874 0-9.140624 4.09375-9.140624 9.144531s4.09375 9.140625 9.140624 9.140625h18.285157c5.050781 0 9.144531-4.089844 9.144531-9.140625s-4.09375-9.144531-9.144531-9.144531zm0 0" fill="#fbb540"/></svg>