<svg height="512pt" viewBox="0 0 512.10056 512" width="512pt" xmlns="http://www.w3.org/2000/svg"><path d="m299.492188 138.945312c26.359374 0 47.726562-21.367187 47.726562-47.726562s-21.367188-47.730469-47.726562-47.730469c-2.152344-.003906-4.300782.171875-6.421876.519531-3.902343-11.539062-12.960937-20.597656-24.5-24.496093-11.542968-3.898438-24.242187-2.1875-34.339843 4.625-1.019531-13.960938-12.921875-24.605469-26.910157-24.0664065-13.988281.5390625-25.035156 12.0624995-24.984374 26.0624995v.609376c-5.652344-5.9375-13.496094-9.292969-21.691407-9.289063-8.058593 0-15.78125 3.203125-21.476562 8.898437-5.699219 5.695313-8.898438 13.421876-8.898438 21.476563-.007812 2.636719.34375 5.265625 1.042969 7.808594-4.328125-2.300781-9.15625-3.496094-14.058594-3.46875-16.773437 0-30.375 13.597656-30.375 30.371093-.027344 5.519532 1.507813 10.9375 4.425782 15.621094-10.695313-4.398437-22.882813-3.167968-32.484376 3.28125-9.601562 6.445313-15.351562 17.261719-15.328124 28.828125-19.109376-.042969-36 12.417969-41.589844 30.691407-5.589844 18.273437 1.429687 38.054687 17.289062 48.710937-8.144531 7.957031-11.851562 19.410156-9.90625 30.628906 1.941406 11.21875 9.28125 20.761719 19.625 25.519531-11.160156 12.109376-14.480468 29.503907-8.570312 44.878907 5.910156 15.371093 20.027344 26.0625 36.429687 27.582031 10.152344 21.730469 32.160157 35.441406 56.144531 34.96875 19.75.199219 38.421876-8.976562 50.332032-24.730469 11.75 15.480469 30.03125 24.617188 49.464844 24.730469 24.675781.027344 45.28125-18.808594 47.46875-43.386719h.261718c16.8125-.003906 32.109375-9.714843 39.265625-24.933593 7.152344-15.214844 4.871094-33.195313-5.855469-46.140626 6.382813-6.511718 9.964844-15.265624 9.976563-24.386718.007813-3.902344-.664063-7.78125-1.996094-11.453125 16.875-6.398438 28.03125-22.566407 28.03125-40.613281.054688-20.90625-14.527343-39.003907-34.972656-43.390626 1.53125.089844 3.066406.089844 4.601563 0zm0 0" fill="#7f5b53"/><g fill="#59474e"><path d="m112.914062 512.097656c-4.609374.007813-8.417968-3.589844-8.679687-8.191406-.710937-12.902344-16.488281-317.039062 71.429687-422.617188 1.957032-2.464843 5.101563-3.679687 8.207032-3.167968 3.109375.511718 5.695312 2.667968 6.757812 5.632812 1.066406 2.964844.4375 6.273438-1.636718 8.644532-83.585938 100.351562-67.582032 407.449218-67.398438 410.535156.132812 2.304687-.660156 4.566406-2.195312 6.285156-1.539063 1.71875-3.695313 2.753906-6 2.878906zm0 0"/><path d="m114.050781 361.96875c-.691406 0-1.382812-.078125-2.054687-.242188-2.238282-.542968-4.167969-1.953124-5.367188-3.917968-1.199218-1.964844-1.566406-4.328125-1.023437-6.5625 10.210937-42.460938 41.59375-76.660156 83.023437-90.46875 4.550782-1.160156 9.195313 1.507812 10.484375 6.019531 1.292969 4.515625-1.238281 9.234375-5.710937 10.660156-35.441406 12.070313-62.222656 41.472657-70.941406 77.882813-.945313 3.882812-4.414063 6.621094-8.410157 6.628906zm0 0"/><path d="m128.960938 232.496094c-3.019532-.003906-5.816407-1.570313-7.394532-4.144532-1.578125-2.570312-1.707031-5.777343-.339844-8.464843 17.722657-34.894531 63.542969-61.335938 65.484376-62.480469 4.164062-2.378906 9.464843-.929688 11.839843 3.230469 2.378907 4.164062.933594 9.464843-3.230469 11.839843-.425781.246094-43.269531 25.011719-58.609374 55.226563-1.472657 2.933594-4.46875 4.789063-7.75 4.792969zm0 0"/><path d="m117.949219 309.640625c-2.058594 0-4.050781-.730469-5.617188-2.0625-27.59375-23.433594-33.84375-70.101563-34.058593-72.082031-.394532-3.074219.882812-6.125 3.351562-8.003906 2.46875-1.875 5.75-2.292969 8.609375-1.097657 2.859375 1.199219 4.863281 3.832031 5.253906 6.90625.050781.417969 5.660157 42.003907 28.082031 61.050781 2.773438 2.355469 3.78125 6.191407 2.523438 9.609376-1.253906 3.414062-4.507812 5.683593-8.144531 5.679687zm0 0"/></g><path d="m443.640625 186.675781c1.871094-.660156 3.03125-2.535156 2.792969-4.503906-.945313-8.390625-5.09375-30.703125-22.832032-41.722656-17.738281-11.023438-39.578124-4.878907-47.519531-2.015625-1.875.660156-3.042969 2.53125-2.804687 4.503906.949218 8.390625 5.097656 30.703125 22.84375 41.722656 17.746094 11.023438 39.613281 4.90625 47.519531 2.015625zm0 0" fill="#7f5b53"/><path d="m502.910156 307.480469c.941406-1.742188.550782-3.90625-.945312-5.207031-6.335938-5.578126-24.394532-19.324219-44.941406-15.621094-20.550782 3.707031-32.570313 22.988281-36.5625 30.453125-.949219 1.742187-.554688 3.910156.945312 5.207031 6.335938 5.589844 24.394531 19.332031 44.945312 15.621094 20.546876-3.714844 32.601563-22.996094 36.558594-30.453125zm0 0" fill="#7f5b53"/><path d="m342.628906 477.386719h-186.324218c-4.792969 0-8.679688-3.886719-8.679688-8.675781 0-4.792969 3.886719-8.679688 8.679688-8.679688h186.324218c17.457032.785156 33.6875-8.945312 41.21875-24.714844 8.25-16.390625 7.101563-35.945312-3.019531-51.253906-8.796875-10.746094-23.191406-15.15625-36.5-11.183594-12.039063 1.4375-20.839844 12.0625-20.011719 24.160156.871094 8.832032 8.105469 18.273438 25.765625 18.273438.808594 0 2.5 0 2.5-2.5 0-2.496094-1.734375-2.496094-2.5-2.496094-4.792969 0-8.675781-3.886718-8.675781-8.679687s3.882812-8.675781 8.675781-8.675781c10.964844 0 19.855469 8.886718 19.855469 19.851562 0 10.96875-8.890625 19.855469-19.855469 19.855469-27.402343 0-41.359375-17.03125-43.03125-33.921875-1.691406-20.953125 13.089844-39.65625 33.867188-42.851563 19.804687-5.375 40.90625 1.554688 53.664062 17.625 14.195313 20.542969 16.046875 47.195313 4.835938 69.503907-10.484375 21.664062-32.734375 35.128906-56.789063 34.363281zm0 0" fill="#bdc3c7"/><path d="m442.675781 34.8125h-69.421875c-4.792968 0-8.679687-3.886719-8.679687-8.679688 0-4.792968 3.886719-8.679687 8.679687-8.679687h69.421875c4.792969 0 8.679688 3.886719 8.679688 8.679687 0 4.792969-3.886719 8.679688-8.679688 8.679688zm0 0" fill="#fdd7ad"/><path d="m503.421875 86.878906h-112.8125c-4.792969 0-8.679687-3.886718-8.679687-8.679687s3.886718-8.675781 8.679687-8.675781h112.8125c4.792969 0 8.679687 3.882812 8.679687 8.675781s-3.886718 8.679687-8.679687 8.679687zm0 0" fill="#bdc3c7"/><path d="m451.355469 243.082031h-95.457031c-4.792969 0-8.679688-3.886719-8.679688-8.679687 0-4.789063 3.886719-8.675782 8.679688-8.675782h95.457031c4.792969 0 8.675781 3.886719 8.675781 8.675782 0 4.792968-3.882812 8.679687-8.675781 8.679687zm0 0" fill="#fdd7ad"/><path d="m460.03125 512.097656h-416.539062c-4.792969 0-8.679688-3.882812-8.679688-8.675781s3.886719-8.679687 8.679688-8.679687h416.539062c4.792969 0 8.679688 3.886718 8.679688 8.679687s-3.886719 8.675781-8.679688 8.675781zm0 0" fill="#cb8252"/></svg>