<?xml version="1.0" encoding="iso-8859-1"?>
<!-- Generator: Adobe Illustrator 19.0.0, SVG Export Plug-In . SVG Version: 6.00 Build 0)  -->
<svg version="1.1" id="Capa_1" xmlns="http://www.w3.org/2000/svg" xmlns:xlink="http://www.w3.org/1999/xlink" x="0px" y="0px"
	 viewBox="0 0 511.845 511.845" style="enable-background:new 0 0 511.845 511.845;" xml:space="preserve">
<polygon style="fill:#ED5565;" points="83.976,323.901 19.995,323.901 4,307.905 75.978,307.905 83.976,315.903 "/>
<g style="opacity:0.3;">
	<polygon style="fill:#FFFFFF;" points="75.978,307.905 4,307.905 11.998,315.903 75.978,315.903 83.976,323.901 83.976,315.903 	
		"/>
</g>
<polygon style="fill:#ED5565;" points="83.976,323.901 19.995,323.901 4,339.896 75.978,339.896 83.976,331.899 "/>
<g style="opacity:0.2;">
	<polygon points="75.978,339.896 4,339.896 11.998,331.899 75.978,331.899 83.976,323.901 83.976,331.899 	"/>
</g>
<path style="fill:#FFCE54;" d="M267.917,387.881c4.397,0,7.998,3.601,7.998,7.997c0,4.397-3.601,7.998-7.998,7.998
	c-4.396,0-7.997-3.601-7.997-7.998C259.92,391.482,263.521,387.881,267.917,387.881z"/>
<g style="opacity:0.5;">
	<path style="fill:#FFFFFF;" d="M267.917,395.878c0-2.913,1.656-5.365,3.999-6.763c-1.194-0.711-2.515-1.234-3.999-1.234
		c-4.396,0-7.997,3.601-7.997,7.997c0,4.397,3.601,7.998,7.997,7.998c1.484,0,2.805-0.523,3.999-1.234
		C269.573,401.244,267.917,398.791,267.917,395.878z"/>
</g>
<path style="fill:#656D78;" d="M267.917,307.905c8.795,0,15.996,7.201,15.996,15.995c0,8.795-7.201,15.995-15.996,15.995
	c-8.798,0-15.995-7.2-15.995-15.995c0-7.115,4.717-13.277,11.278-15.276C264.638,308.148,266.238,307.905,267.917,307.905z"/>
<g style="opacity:0.3;">
	<path style="fill:#FFFFFF;" d="M259.92,323.901c0-7.115,4.718-13.277,11.278-15.276c0.241-0.078,0.546-0.055,0.796-0.125
		c-1.312-0.344-2.663-0.594-4.077-0.594c-1.679,0-3.279,0.242-4.717,0.719c-6.561,1.999-11.278,8.161-11.278,15.276
		c0,8.795,7.197,15.995,15.995,15.995c1.391,0,2.711-0.234,3.999-0.57C265.051,337.529,259.92,331.305,259.92,323.901z"/>
</g>
<g style="opacity:0.2;">
	<path d="M275.915,323.901c0-7.115-4.717-13.277-11.277-15.276c-0.242-0.078-0.547-0.055-0.797-0.125
		c1.312-0.344,2.663-0.594,4.076-0.594c1.68,0,3.281,0.242,4.718,0.719c6.561,1.999,11.278,8.161,11.278,15.276
		c0,8.795-7.201,15.995-15.996,15.995c-1.39,0-2.71-0.234-3.998-0.57C270.784,337.529,275.915,331.305,275.915,323.901z"/>
</g>
<path style="fill:#FFCE54;" d="M347.893,75.978c0,0,18.791,22.794,0,24.23l-14.073,0.082c1.999,1.917,36.387,35.509,30.068,79.655
	c-7.998,55.982-71.978,71.978-71.978,71.978l-15.995,15.995v39.987h-15.995v-31.989l-55.982-39.988
	c-13.277-8.958-23.993,23.353-23.993,23.353c-15.995-20.232-17.756-45.986-17.756-45.986c-7.037-3.838-14.234,6.639-14.234,6.639
	c-12.715-31.99,20.474-62.461-7.998-79.975s-63.98,39.988-63.98,39.988c0-169.467,151.953-152.273,151.953-47.985l1.211,25.465
	l68.689-101.441l-5.92-3.999c-23.993-7.998-15.995-23.993-15.995-23.993c7.998-7.997,15.995,0,15.995,0s7.997-7.997,15.995-7.997
	c7.997,0,15.995,7.997,15.995,7.997s7.997-7.997,15.995-7.997c7.997,0,15.994,7.997,15.994,7.997l-7.997,15.995v7.998v7.998
	l15.995,7.998L347.893,75.978z"/>
<g style="opacity:0.2;">
	<path d="M283.913,27.992c0,0,1.319-1.296,3.373-2.835c-2.093-0.781-4.709-1.02-7.513,0.211
		C282.265,26.422,283.913,27.992,283.913,27.992z"/>
	<path d="M315.902,27.992c0,0,1.594-1.554,3.999-3.28c-3.077-2.21-7.506-4.717-11.996-4.717c-1.352,0-2.688,0.281-3.999,0.664
		C310.365,22.522,315.902,27.992,315.902,27.992z"/>
	<path d="M333.819,100.29l14.073-0.082c18.791-1.437,0-24.23,0-24.23l15.995-7.998l-15.995-7.998v-7.998v-7.998l7.997-15.995
		c0,0-7.997-7.997-15.994-7.997c-1.352,0-2.688,0.281-3.999,0.664c6.459,1.863,11.996,7.333,11.996,7.333l-7.997,15.995v7.998v7.998
		l15.994,7.998l-15.994,7.998c0,0,18.791,22.794,0,24.23l-14.074,0.082c2,1.917,36.387,35.509,30.068,79.655
		c-7.997,55.982-71.977,71.978-71.977,71.978l-15.996,15.995v39.987h7.998v-39.987l15.995-15.995c0,0,63.979-15.995,71.978-71.978
		C370.206,135.799,335.818,102.208,333.819,100.29z"/>
</g>
<g style="opacity:0.5;">
	<path style="fill:#FFFFFF;" d="M299.907,27.992c0,0,5.537-5.471,11.996-7.333c-1.312-0.383-2.647-0.664-3.998-0.664
		c-4.788,0-9.544,2.862-12.621,5.162C298.057,26.193,299.907,27.992,299.907,27.992z"/>
	<path style="fill:#FFFFFF;" d="M331.898,27.992c0,0,5.537-5.471,11.996-7.333c-1.312-0.383-2.647-0.664-3.998-0.664
		c-4.491,0-8.92,2.507-11.996,4.717C330.305,26.438,331.898,27.992,331.898,27.992z"/>
	<path style="fill:#FFFFFF;" d="M147.956,139.958c-5.198-3.198-10.629-3.85-16.034-2.854c2.714,0.445,5.409,1.238,8.037,2.854
		c28.472,17.514-4.717,47.985,7.998,79.975c0,0,2.589-3.702,6.15-5.896C147.1,184.237,174.674,156.394,147.956,139.958z"/>
	<path style="fill:#FFFFFF;" d="M162.357,53.184c-41.12-2.526-86.38,34.267-86.38,126.762c0,0,3.183-5.116,8.334-11.786
		C87.775,90.036,125.408,55.53,162.357,53.184z"/>
	<path style="fill:#FFFFFF;" d="M170.187,213.294c-2.777-1.515-5.565-0.777-7.939,0.648c0.371,3.925,3.116,26.894,17.698,45.338
		c0,0,1.066-3.21,2.937-7.322C171.572,233.343,170.187,213.294,170.187,213.294z"/>
</g>
<polygon style="fill:#AAB2BD;" points="459.859,339.896 459.859,307.905 507.843,323.901 "/>
<g style="opacity:0.5;">
	<polygon style="fill:#FFFFFF;" points="507.843,323.901 459.859,307.905 459.859,315.903 495.847,327.9 	"/>
</g>
<g style="opacity:0.2;">
	<polygon points="495.847,327.9 459.859,339.896 459.859,331.899 483.851,323.901 	"/>
</g>
<g>
	<path style="fill:#3A3847;" d="M75.978,343.895H4c-2.21,0-3.999-1.789-3.999-3.999S1.79,335.897,4,335.897h71.978
		c2.211,0,3.999,1.789,3.999,3.999S78.188,343.895,75.978,343.895z"/>
	<path style="fill:#3A3847;" d="M75.978,343.895c-1.022,0-2.046-0.391-2.827-1.172c-1.562-1.562-1.562-4.092,0-5.654l7.998-7.998
		c1.562-1.562,4.092-1.562,5.654,0c1.562,1.563,1.562,4.093,0,5.655l-7.998,7.997C78.024,343.504,77.001,343.895,75.978,343.895z"/>
	<path style="fill:#3A3847;" d="M4,343.895c-1.023,0-2.046-0.391-2.827-1.172c-1.562-1.562-1.562-4.092,0-5.654l7.998-7.998
		c1.562-1.562,4.092-1.562,5.655,0c1.562,1.563,1.562,4.093,0,5.655l-7.998,7.997C6.047,343.504,5.024,343.895,4,343.895z"/>
	<path style="fill:#3A3847;" d="M75.978,311.904H4c-2.21,0-3.999-1.789-3.999-3.999S1.79,303.906,4,303.906h71.978
		c2.211,0,3.999,1.789,3.999,3.999S78.188,311.904,75.978,311.904z"/>
	<path style="fill:#3A3847;" d="M83.976,319.902c-1.023,0-2.046-0.391-2.827-1.172l-7.998-7.998c-1.562-1.562-1.562-4.092,0-5.654
		c1.563-1.562,4.093-1.562,5.655,0l7.998,7.998c1.562,1.562,1.562,4.092,0,5.654C86.021,319.512,84.998,319.902,83.976,319.902z"/>
	<path style="fill:#3A3847;" d="M11.998,319.902c-1.023,0-2.047-0.391-2.828-1.172l-7.998-7.998c-1.562-1.562-1.562-4.092,0-5.654
		c1.562-1.562,4.093-1.562,5.654,0l7.998,7.998c1.562,1.562,1.562,4.092,0,5.654C14.044,319.512,13.021,319.902,11.998,319.902z"/>
	<path style="fill:#3A3847;" d="M467.856,327.9H291.91c-2.21,0-3.999-1.788-3.999-3.999c0-2.21,1.789-3.998,3.999-3.998h175.945
		c2.21,0,3.999,1.788,3.999,3.998C471.855,326.111,470.066,327.9,467.856,327.9z"/>
	<path style="fill:#3A3847;" d="M243.926,327.9H11.998c-2.21,0-3.999-1.788-3.999-3.999c0-2.21,1.789-3.998,3.999-3.998h231.928
		c2.21,0,3.999,1.788,3.999,3.998C247.924,326.111,246.135,327.9,243.926,327.9z"/>
	<path style="fill:#3A3847;" d="M507.843,327.9c-0.422,0-0.844-0.063-1.265-0.203l-47.985-15.995
		c-2.094-0.703-3.226-2.968-2.53-5.061c0.702-2.094,2.968-3.21,5.061-2.531l47.985,15.996c2.093,0.702,3.226,2.967,2.53,5.061
		C511.076,326.837,509.515,327.9,507.843,327.9z"/>
	<path style="fill:#3A3847;" d="M459.859,343.895c-1.672,0-3.234-1.063-3.796-2.733c-0.695-2.093,0.437-4.358,2.53-5.062
		l47.985-15.994c2.101-0.695,4.357,0.437,5.061,2.529c0.695,2.094-0.438,4.358-2.53,5.062l-47.985,15.995
		C460.701,343.832,460.28,343.895,459.859,343.895z"/>
	<path style="fill:#3A3847;" d="M259.916,279.914c-0.805,0-1.616-0.242-2.319-0.742l-55.983-39.991
		c-1.585-1.066-2.73-0.902-3.635-0.605c-5.694,1.938-11.754,14.5-14.238,21.966c-0.465,1.395-1.655,2.422-3.104,2.676
		c-1.433,0.269-2.913-0.301-3.827-1.457c-13.538-17.124-17.326-37.691-18.299-45.256c-2.968,0.387-6.412,4.46-7.259,5.694
		c-0.835,1.214-2.292,1.851-3.741,1.71c-1.469-0.168-2.726-1.125-3.272-2.499c-6.08-15.304-2.546-29.968,0.574-42.909
		c4.139-17.166,5.858-27.261-6.951-35.137c-24.735-15.214-58.15,38.145-58.482,38.683c-0.945,1.523-2.772,2.222-4.494,1.746
		c-1.719-0.488-2.905-2.059-2.905-3.847c0-90.476,43.416-130.975,86.445-130.975c18.986,0,37.59,8.126,51.047,22.297
		c14.69,15.476,22.458,36.462,22.458,60.692c0,2.21-1.789,3.999-3.999,3.999c-2.21,0-3.999-1.789-3.999-3.999
		c0-48.711-33.751-74.992-65.507-74.992c-20.333,0-39.171,10.06-53.046,28.327c-14.753,19.424-23.333,47.399-25.07,81.451
		c12.629-16.636,38.523-44.479,61.747-30.193c18.373,11.301,14.386,27.835,10.532,43.822c-2.495,10.344-5.061,20.985-2.812,31.775
		c3.933-3.159,9.118-5.218,14.328-2.367c1.199,0.652,1.98,1.875,2.078,3.233c0.016,0.222,1.542,20.111,12.758,37.91
		c3.187-7.158,8.907-17.346,16.459-19.919c3.655-1.234,7.373-0.688,10.778,1.604l56.068,40.046c1.801,1.289,2.215,3.78,0.93,5.585
		C262.392,279.328,261.165,279.914,259.916,279.914z"/>
	<path style="fill:#3A3847;" d="M218.57,177.068c-0.77,0-1.55-0.223-2.233-0.688c-1.832-1.234-2.312-3.722-1.074-5.549
		l81.662-120.619c1.25-1.831,3.749-2.28,5.554-1.05c1.827,1.242,2.296,3.729,1.054,5.557l-81.646,120.587
		C221.115,176.45,219.855,177.068,218.57,177.068z"/>
	<path style="fill:#3A3847;" d="M347.885,104.207c-2.069,0-3.819-1.597-3.983-3.694c-0.164-2.202,1.484-4.124,3.687-4.292
		c1.438-0.109,3.921-0.484,4.46-1.746c1.296-3.042-3.46-11.368-7.24-15.956c-0.773-0.938-1.078-2.179-0.828-3.37
		s1.039-2.202,2.125-2.749l8.841-4.42l-8.841-4.42c-1.977-0.988-2.773-3.39-1.789-5.366c0.992-1.976,3.397-2.757,5.365-1.789
		l15.996,7.998c1.351,0.679,2.21,2.062,2.21,3.577s-0.859,2.897-2.21,3.577l-11.724,5.862c3.515,5.151,8.185,13.785,5.452,20.189
		c-1.148,2.702-4.022,6.037-11.208,6.588C348.096,104.203,347.994,104.207,347.885,104.207z"/>
	<path style="fill:#3A3847;" d="M275.915,271.917c-1.023,0-2.047-0.391-2.827-1.172c-1.563-1.562-1.563-4.093,0-5.654l15.995-15.995
		c0.508-0.512,1.155-0.875,1.851-1.051c0.617-0.156,61.481-16.062,68.994-68.666c6.037-42.17-27.444-74.832-28.874-76.203
		l5.585-5.725c3.835,3.679,37.707,37.652,31.209,83.061c-7.686,53.796-65.089,72.442-73.853,74.98l-15.253,15.253
		C277.961,271.526,276.939,271.917,275.915,271.917z"/>
	<path style="fill:#3A3847;" d="M275.915,303.906c-2.211,0-3.999-1.788-3.999-3.998v-31.99c0-2.21,1.788-3.999,3.999-3.999
		c2.21,0,3.999,1.789,3.999,3.999v31.99C279.914,302.118,278.125,303.906,275.915,303.906z"/>
	<path style="fill:#3A3847;" d="M259.92,303.906c-2.21,0-3.999-1.788-3.999-3.998v-23.992c0-2.211,1.789-3.999,3.999-3.999
		s3.999,1.788,3.999,3.999v23.992C263.919,302.118,262.13,303.906,259.92,303.906z"/>
	<path style="fill:#3A3847;" d="M267.917,343.895c-11.023,0-19.993-8.966-19.993-19.994c0-8.716,5.803-16.572,14.108-19.104
		c1.754-0.578,3.761-0.891,5.885-0.891c11.028,0,19.994,8.967,19.994,19.994C287.911,334.929,278.945,343.895,267.917,343.895z
		 M267.917,311.904c-1.265,0-2.429,0.172-3.459,0.516c-5.065,1.546-8.537,6.256-8.537,11.48c0,6.615,5.381,11.996,11.996,11.996
		s11.997-5.381,11.997-11.996S274.532,311.904,267.917,311.904z"/>
	<path style="fill:#3A3847;" d="M347.893,63.982c-2.21,0-3.999-1.789-3.999-3.999v-7.998c0-2.21,1.789-3.999,3.999-3.999
		s3.999,1.788,3.999,3.999v7.998C351.892,62.193,350.103,63.982,347.893,63.982z"/>
	<path style="fill:#3A3847;" d="M347.893,47.986c-0.602,0-1.21-0.137-1.788-0.422c-1.977-0.988-2.773-3.39-1.789-5.366l7.998-15.995
		c0.999-1.973,3.389-2.765,5.365-1.789c1.976,0.988,2.772,3.39,1.789,5.366l-7.998,15.995
		C350.767,47.178,349.353,47.986,347.893,47.986z"/>
	<path style="fill:#3A3847;" d="M291.91,55.984c-0.422,0-0.844-0.066-1.266-0.207c-9.677-3.222-15.94-8.138-18.619-14.612
		c-3.21-7.751,0.164-14.667,0.313-14.96c0.992-1.973,3.397-2.765,5.365-1.789c1.977,0.988,2.772,3.39,1.789,5.366
		c-0.063,0.129-1.89,4.077-0.039,8.423c1.765,4.127,6.506,7.583,13.722,9.989c2.094,0.695,3.227,2.96,2.531,5.057
		C295.144,54.925,293.581,55.984,291.91,55.984z"/>
	<path style="fill:#3A3847;" d="M275.915,31.991c-1.023,0-2.047-0.391-2.827-1.172c-1.563-1.562-1.563-4.092,0-5.654
		c6.42-6.432,13.769-5.307,18.635-2.343c3.405-2.746,9.575-6.826,16.183-6.826c6.49,0,12.559,3.94,15.995,6.678
		c3.437-2.737,9.505-6.678,15.995-6.678c9.38,0,17.885,8.231,18.822,9.169c1.562,1.558,1.562,4.085,0,5.646
		c-1.563,1.57-4.085,1.566-5.646,0.012c-1.922-1.897-8.014-6.83-13.176-6.83c-5.163,0-11.255,4.933-13.176,6.83
		c-1.547,1.555-4.093,1.555-5.639,0c-1.922-1.897-8.014-6.83-13.176-6.83s-11.255,4.933-13.176,6.83
		c-1.563,1.566-4.085,1.555-5.646-0.004c-1.211-1.171-5.607-4.721-10.341,0C277.961,31.601,276.939,31.991,275.915,31.991z"/>
	<path style="fill:#3A3847;" d="M267.917,383.882c-2.21,0-3.998-1.788-3.998-3.999v-31.99c0-2.21,1.788-3.998,3.998-3.998
		c2.211,0,3.999,1.788,3.999,3.998v31.99C271.916,382.094,270.128,383.882,267.917,383.882z"/>
	<path style="fill:#3A3847;" d="M403.883,419.871c-0.195,0-0.382-0.016-0.577-0.039l-116.207-16.714
		c-2.187-0.313-3.701-2.343-3.389-4.53c0.319-2.187,2.358-3.67,4.529-3.389l116.206,16.713c2.187,0.313,3.702,2.344,3.39,4.53
		C407.546,418.434,405.836,419.871,403.883,419.871z"/>
	<path style="fill:#3A3847;" d="M248.167,396.597c-0.188,0-0.379-0.016-0.574-0.039L131.39,379.844
		c-2.187-0.313-3.702-2.343-3.39-4.529c0.32-2.18,2.308-3.647,4.53-3.39l116.202,16.714c2.187,0.313,3.702,2.343,3.39,4.529
		C251.833,395.16,250.122,396.597,248.167,396.597z"/>
	<path style="fill:#3A3847;" d="M131.956,419.871c-1.957,0-3.667-1.438-3.956-3.429c-0.313-2.187,1.203-4.218,3.39-4.53
		l116.202-16.713c2.194-0.297,4.213,1.202,4.53,3.389c0.312,2.188-1.203,4.218-3.39,4.53l-116.202,16.714
		C132.335,419.856,132.143,419.871,131.956,419.871z"/>
	<path style="fill:#3A3847;" d="M287.661,396.597c-1.952,0-3.663-1.437-3.951-3.429c-0.313-2.187,1.202-4.217,3.389-4.529
		l116.207-16.714c2.132-0.289,4.209,1.194,4.529,3.39c0.313,2.187-1.203,4.217-3.39,4.529L288.24,396.558
		C288.044,396.581,287.857,396.597,287.661,396.597z"/>
	<path style="fill:#3A3847;" d="M267.917,407.875c-6.615,0-11.996-5.382-11.996-11.997c0-6.614,5.381-11.996,11.996-11.996
		s11.997,5.382,11.997,11.996C279.914,402.493,274.532,407.875,267.917,407.875z M267.917,391.879c-2.202,0-3.998,1.797-3.998,3.999
		c0,2.203,1.796,3.999,3.998,3.999c2.203,0,3.999-1.796,3.999-3.999C271.916,393.676,270.12,391.879,267.917,391.879z"/>
	<path style="fill:#3A3847;" d="M267.917,495.848c-2.21,0-3.998-1.789-3.998-3.999v-79.976c0-2.21,1.788-3.998,3.998-3.998
		c2.211,0,3.999,1.788,3.999,3.998v79.976C271.916,494.059,270.128,495.848,267.917,495.848z"/>
</g>
<g>
</g>
<g>
</g>
<g>
</g>
<g>
</g>
<g>
</g>
<g>
</g>
<g>
</g>
<g>
</g>
<g>
</g>
<g>
</g>
<g>
</g>
<g>
</g>
<g>
</g>
<g>
</g>
<g>
</g>
</svg>
